<?xml version="1.0" encoding="UTF-8"?>
<svg id="Layer_1" data-name="Layer 1" xmlns="http://www.w3.org/2000/svg" version="1.1" viewBox="0 0 1200 1200">
  <defs>
    <style>
      .cls-1 {
        fill: #161b2e;
        stroke-width: 0px;
      }
    </style>
  </defs>
  <path class="cls-1" d="M876.2,1004.4l129-129c7-7,7-18.4,0-25.5s-18.4-7-25.5,0l-90.8,90.8c3.9-356.2-177-539.9-333-631.8-174.6-102.8-350.9-114.9-358.3-115.4-9.9-.6-18.5,6.9-19.1,16.8,0,.4,0,.8,0,1.2,0,9.4,7.3,17.3,16.9,18,1.7,0,176.2,12.2,343.4,111.1,216,127.7,321.5,334.5,314,614.8l-114.7-114.6c-7-7-18.4-7-25.5,0-3.5,3.5-5.2,8.1-5.2,12.8s1.7,9.2,5.2,12.8l138.1,138.1c7,6.9,18.4,6.9,25.5,0h0Z"/>
</svg>